<svg width="25" height="24" viewBox="0 0 25 24" fill="none" xmlns="http://www.w3.org/2000/svg">
<rect width="24" height="24" transform="translate(0.87793)" fill="white" style="mix-blend-mode:multiply"/>
<path d="M11.3779 16.0605L7.62793 12.3097L8.68769 11.25L11.3779 13.9395L17.0667 8.25L18.1279 9.31125L11.3779 16.0605Z" fill="#007580"/>
<path d="M12.8779 1.5C10.8012 1.5 8.77116 2.11581 7.04445 3.26957C5.31773 4.42332 3.97192 6.0632 3.1772 7.98182C2.38248 9.90045 2.17454 12.0116 2.57969 14.0484C2.98483 16.0852 3.98486 17.9562 5.45331 19.4246C6.92176 20.8931 8.79269 21.8931 10.8295 22.2982C12.8663 22.7034 14.9775 22.4955 16.8961 21.7007C18.8147 20.906 20.4546 19.5602 21.6084 17.8335C22.7621 16.1068 23.3779 14.0767 23.3779 12C23.3779 9.21523 22.2717 6.54451 20.3026 4.57538C18.3334 2.60625 15.6627 1.5 12.8779 1.5ZM12.8779 21C11.0979 21 9.35785 20.4722 7.8778 19.4832C6.39776 18.4943 5.24421 17.0887 4.56302 15.4442C3.88183 13.7996 3.7036 11.99 4.05087 10.2442C4.39813 8.49836 5.2553 6.89471 6.51397 5.63604C7.77265 4.37737 9.37629 3.5202 11.1221 3.17293C12.868 2.82567 14.6776 3.0039 16.3221 3.68508C17.9666 4.36627 19.3722 5.51983 20.3612 6.99987C21.3501 8.47991 21.8779 10.22 21.8779 12C21.8779 14.3869 20.9297 16.6761 19.2419 18.364C17.5541 20.0518 15.2649 21 12.8779 21Z" fill="#007580"/>
</svg>
