<svg width="25" height="24" viewBox="0 0 25 24" fill="none" xmlns="http://www.w3.org/2000/svg">
<rect width="24" height="24" transform="translate(0.696289)" fill="white" style="mix-blend-mode:multiply"/>
<path d="M21.6963 4.5H3.69629C3.29846 4.5 2.91693 4.65804 2.63563 4.93934C2.35432 5.22064 2.19629 5.60218 2.19629 6V18C2.19629 18.3978 2.35432 18.7794 2.63563 19.0607C2.91693 19.342 3.29846 19.5 3.69629 19.5H21.6963C22.0941 19.5 22.4756 19.342 22.7569 19.0607C23.0383 18.7794 23.1963 18.3978 23.1963 18V6C23.1963 5.60218 23.0383 5.22064 22.7569 4.93934C22.4756 4.65804 22.0941 4.5 21.6963 4.5ZM21.6963 6V8.25H3.69629V6H21.6963ZM3.69629 18V9.75H21.6963V18H3.69629Z" fill="#007580"/>
<path d="M12.6963 15H5.19629V16.5H12.6963V15Z" fill="#007580"/>
</svg>
