<svg width="25" height="24" viewBox="0 0 25 24" fill="none" xmlns="http://www.w3.org/2000/svg">
<rect width="24" height="24" transform="translate(0.544922)" fill="white" style="mix-blend-mode:multiply"/>
<path d="M19.2949 1.5C17.6327 1.50275 16.01 2.00708 14.6391 2.94704C13.2682 3.887 12.2128 5.21881 11.6111 6.7683C11.1291 6.06903 10.4844 5.49727 9.73259 5.10216C8.98077 4.70705 8.14424 4.50041 7.29492 4.5H5.04492V6.75C5.04647 8.14191 5.60009 9.47637 6.58432 10.4606C7.56855 11.4448 8.90301 11.9985 10.2949 12H11.0449V18.787C9.32222 18.9554 7.7121 19.7191 6.49167 20.9465L7.55217 22.0071C8.17956 21.3798 8.93826 20.8995 9.77361 20.6006C10.609 20.3018 11.5002 20.192 12.3831 20.279C13.266 20.3661 14.1186 20.6478 14.8796 21.104C15.6405 21.5602 16.2908 22.1794 16.7836 22.9172L18.0298 22.0826C17.415 21.1638 16.6043 20.3926 15.6559 19.8244C14.7075 19.2562 13.6451 18.9052 12.5449 18.7965V12H13.2949C15.4822 11.9975 17.5792 11.1275 19.1258 9.58089C20.6725 8.03425 21.5424 5.93727 21.5449 3.75V1.5H19.2949ZM10.2949 10.5C9.30071 10.4989 8.34754 10.1034 7.64452 9.4004C6.9415 8.69738 6.54605 7.74421 6.54492 6.75V6H7.29492C8.28915 6.00107 9.24236 6.3965 9.94539 7.09953C10.6484 7.80256 11.0438 8.75577 11.0449 9.75V10.5H10.2949ZM20.0449 3.75C20.0429 5.5396 19.3311 7.25534 18.0657 8.52078C16.8003 9.78622 15.0845 10.498 13.2949 10.5H12.5449V9.75C12.5469 7.9604 13.2587 6.24466 14.5241 4.97922C15.7896 3.71378 17.5053 3.00199 19.2949 3H20.0449V3.75Z" fill="#007580"/>
</svg>
